<mxfile host="app.diagrams.net" modified="2023-08-09T07:41:04.081Z" agent="Mozilla/5.0 (Windows NT 10.0; Win64; x64) AppleWebKit/537.36 (KHTML, like Gecko) Chrome/115.0.0.0 Safari/537.36" etag="tUt5l7_GD_5gWvfkQCLL" version="21.6.6" type="github">
  <diagram name="第 1 页" id="XKHt7ZkxeoJucysOkWXI">
    <mxGraphModel dx="989" dy="523" grid="0" gridSize="10" guides="1" tooltips="1" connect="1" arrows="1" fold="1" page="0" pageScale="1" pageWidth="827" pageHeight="1169" math="0" shadow="0">
      <root>
        <mxCell id="0" />
        <mxCell id="1" parent="0" />
        <mxCell id="bgrn3Tl8ubPK2GubADN5-1" value="" style="rounded=1;whiteSpace=wrap;html=1;strokeWidth=2;fillWeight=4;hachureGap=8;hachureAngle=45;fillColor=#dae8fc;sketch=1;strokeColor=#6c8ebf;fontFamily=Comic Sans MS;fontStyle=1" vertex="1" parent="1">
          <mxGeometry x="452" y="269" width="51" height="24" as="geometry" />
        </mxCell>
        <mxCell id="bgrn3Tl8ubPK2GubADN5-2" value="" style="rounded=1;whiteSpace=wrap;html=1;strokeWidth=2;fillWeight=4;hachureGap=8;hachureAngle=45;fillColor=#dae8fc;sketch=1;strokeColor=#6c8ebf;fontFamily=Comic Sans MS;fontStyle=1" vertex="1" parent="1">
          <mxGeometry x="503" y="269" width="51" height="24" as="geometry" />
        </mxCell>
        <mxCell id="bgrn3Tl8ubPK2GubADN5-3" value="" style="rounded=1;whiteSpace=wrap;html=1;strokeWidth=2;fillWeight=4;hachureGap=8;hachureAngle=45;fillColor=#dae8fc;sketch=1;strokeColor=#6c8ebf;fontFamily=Comic Sans MS;fontStyle=1" vertex="1" parent="1">
          <mxGeometry x="554" y="269" width="51" height="24" as="geometry" />
        </mxCell>
        <mxCell id="bgrn3Tl8ubPK2GubADN5-4" value="" style="rounded=1;whiteSpace=wrap;html=1;strokeWidth=2;fillWeight=4;hachureGap=8;hachureAngle=45;fillColor=#dae8fc;sketch=1;strokeColor=#6c8ebf;fontFamily=Comic Sans MS;fontStyle=1" vertex="1" parent="1">
          <mxGeometry x="605" y="269" width="51" height="24" as="geometry" />
        </mxCell>
        <mxCell id="bgrn3Tl8ubPK2GubADN5-5" value="" style="rounded=1;whiteSpace=wrap;html=1;strokeWidth=2;fillWeight=4;hachureGap=8;hachureAngle=45;fillColor=#dae8fc;sketch=1;strokeColor=#6c8ebf;fontFamily=Comic Sans MS;fontStyle=1" vertex="1" parent="1">
          <mxGeometry x="656" y="269" width="51" height="24" as="geometry" />
        </mxCell>
        <mxCell id="bgrn3Tl8ubPK2GubADN5-6" value="" style="rounded=1;whiteSpace=wrap;html=1;strokeWidth=2;fillWeight=4;hachureGap=8;hachureAngle=45;fillColor=#dae8fc;sketch=1;strokeColor=#6c8ebf;fontFamily=Comic Sans MS;fontStyle=1" vertex="1" parent="1">
          <mxGeometry x="707" y="269" width="51" height="24" as="geometry" />
        </mxCell>
        <mxCell id="bgrn3Tl8ubPK2GubADN5-7" value="" style="rounded=1;whiteSpace=wrap;html=1;strokeWidth=2;fillWeight=4;hachureGap=8;hachureAngle=45;fillColor=#dae8fc;sketch=1;strokeColor=#6c8ebf;fontStyle=1" vertex="1" parent="1">
          <mxGeometry x="452" y="414" width="51" height="24" as="geometry" />
        </mxCell>
        <mxCell id="bgrn3Tl8ubPK2GubADN5-8" value="" style="rounded=1;whiteSpace=wrap;html=1;strokeWidth=2;fillWeight=4;hachureGap=8;hachureAngle=45;fillColor=#dae8fc;sketch=1;strokeColor=#6c8ebf;fontStyle=1" vertex="1" parent="1">
          <mxGeometry x="503" y="414" width="51" height="24" as="geometry" />
        </mxCell>
        <mxCell id="bgrn3Tl8ubPK2GubADN5-9" value="" style="rounded=1;whiteSpace=wrap;html=1;strokeWidth=2;fillWeight=4;hachureGap=8;hachureAngle=45;fillColor=#dae8fc;sketch=1;strokeColor=#6c8ebf;fontStyle=1" vertex="1" parent="1">
          <mxGeometry x="554" y="414" width="51" height="24" as="geometry" />
        </mxCell>
        <mxCell id="bgrn3Tl8ubPK2GubADN5-10" value="" style="rounded=1;whiteSpace=wrap;html=1;strokeWidth=2;fillWeight=4;hachureGap=8;hachureAngle=45;fillColor=#dae8fc;sketch=1;strokeColor=#6c8ebf;fontStyle=1" vertex="1" parent="1">
          <mxGeometry x="605" y="414" width="51" height="24" as="geometry" />
        </mxCell>
        <mxCell id="bgrn3Tl8ubPK2GubADN5-11" value="" style="rounded=1;whiteSpace=wrap;html=1;strokeWidth=2;fillWeight=4;hachureGap=8;hachureAngle=45;fillColor=#dae8fc;sketch=1;strokeColor=#6c8ebf;fontStyle=1" vertex="1" parent="1">
          <mxGeometry x="656" y="414" width="51" height="24" as="geometry" />
        </mxCell>
        <mxCell id="bgrn3Tl8ubPK2GubADN5-12" value="" style="rounded=1;whiteSpace=wrap;html=1;strokeWidth=2;fillWeight=4;hachureGap=8;hachureAngle=45;fillColor=#dae8fc;sketch=1;strokeColor=#6c8ebf;fontStyle=1" vertex="1" parent="1">
          <mxGeometry x="707" y="414" width="51" height="24" as="geometry" />
        </mxCell>
        <mxCell id="bgrn3Tl8ubPK2GubADN5-13" value="" style="rounded=1;whiteSpace=wrap;html=1;strokeWidth=2;fillWeight=4;hachureGap=8;hachureAngle=45;fillColor=#dae8fc;sketch=1;strokeColor=#6c8ebf;fontStyle=1" vertex="1" parent="1">
          <mxGeometry x="758" y="414" width="51" height="24" as="geometry" />
        </mxCell>
        <mxCell id="bgrn3Tl8ubPK2GubADN5-14" value="" style="rounded=1;whiteSpace=wrap;html=1;strokeWidth=2;fillWeight=4;hachureGap=8;hachureAngle=45;fillColor=#dae8fc;sketch=1;strokeColor=#6c8ebf;fontStyle=1" vertex="1" parent="1">
          <mxGeometry x="809" y="414" width="51" height="24" as="geometry" />
        </mxCell>
        <mxCell id="bgrn3Tl8ubPK2GubADN5-15" value="112" style="rounded=1;whiteSpace=wrap;html=1;strokeWidth=2;fillWeight=4;hachureGap=8;hachureAngle=45;fillColor=#d5e8d4;sketch=1;strokeColor=#82b366;fontFamily=Comic Sans MS;fontStyle=1" vertex="1" parent="1">
          <mxGeometry x="758" y="269" width="51" height="24" as="geometry" />
        </mxCell>
        <mxCell id="bgrn3Tl8ubPK2GubADN5-16" value="30" style="rounded=1;whiteSpace=wrap;html=1;strokeWidth=2;fillWeight=4;hachureGap=8;hachureAngle=45;fillColor=#d5e8d4;sketch=1;strokeColor=#82b366;fontFamily=Comic Sans MS;fontStyle=1" vertex="1" parent="1">
          <mxGeometry x="809" y="269" width="51" height="24" as="geometry" />
        </mxCell>
        <mxCell id="bgrn3Tl8ubPK2GubADN5-17" value="50" style="rounded=1;whiteSpace=wrap;html=1;strokeWidth=2;fillWeight=4;hachureGap=8;hachureAngle=45;fillColor=#d5e8d4;sketch=1;strokeColor=#82b366;fontFamily=Comic Sans MS;fontStyle=1" vertex="1" parent="1">
          <mxGeometry x="452" y="318" width="51" height="24" as="geometry" />
        </mxCell>
        <mxCell id="bgrn3Tl8ubPK2GubADN5-18" value="12" style="rounded=1;whiteSpace=wrap;html=1;strokeWidth=2;fillWeight=4;hachureGap=8;hachureAngle=45;fillColor=#d5e8d4;sketch=1;strokeColor=#82b366;fontFamily=Comic Sans MS;fontStyle=1" vertex="1" parent="1">
          <mxGeometry x="503" y="318" width="51" height="24" as="geometry" />
        </mxCell>
        <mxCell id="bgrn3Tl8ubPK2GubADN5-19" value="70" style="rounded=1;whiteSpace=wrap;html=1;strokeWidth=2;fillWeight=4;hachureGap=8;hachureAngle=45;fillColor=#d5e8d4;sketch=1;strokeColor=#82b366;fontFamily=Comic Sans MS;fontStyle=1" vertex="1" parent="1">
          <mxGeometry x="554" y="318" width="51" height="24" as="geometry" />
        </mxCell>
        <mxCell id="bgrn3Tl8ubPK2GubADN5-20" value="0" style="rounded=1;whiteSpace=wrap;html=1;strokeWidth=2;fillWeight=4;hachureGap=8;hachureAngle=45;fillColor=#d5e8d4;sketch=1;strokeColor=#82b366;fontFamily=Comic Sans MS;fontStyle=1" vertex="1" parent="1">
          <mxGeometry x="605" y="318" width="51" height="24" as="geometry" />
        </mxCell>
        <mxCell id="bgrn3Tl8ubPK2GubADN5-21" value="1" style="rounded=1;whiteSpace=wrap;html=1;strokeWidth=2;fillWeight=4;hachureGap=8;hachureAngle=45;fillColor=#d5e8d4;sketch=1;strokeColor=#82b366;fontFamily=Comic Sans MS;fontStyle=1" vertex="1" parent="1">
          <mxGeometry x="656" y="318" width="51" height="24" as="geometry" />
        </mxCell>
        <mxCell id="bgrn3Tl8ubPK2GubADN5-22" value="4" style="rounded=1;whiteSpace=wrap;html=1;strokeWidth=2;fillWeight=4;hachureGap=8;hachureAngle=45;fillColor=#d5e8d4;sketch=1;strokeColor=#82b366;fontFamily=Comic Sans MS;fontStyle=1" vertex="1" parent="1">
          <mxGeometry x="707" y="318" width="51" height="24" as="geometry" />
        </mxCell>
        <mxCell id="bgrn3Tl8ubPK2GubADN5-23" value="10" style="rounded=1;whiteSpace=wrap;html=1;strokeWidth=2;fillWeight=4;hachureGap=8;hachureAngle=45;fillColor=#d5e8d4;sketch=1;strokeColor=#82b366;fontFamily=Comic Sans MS;fontStyle=1" vertex="1" parent="1">
          <mxGeometry x="758" y="318" width="51" height="24" as="geometry" />
        </mxCell>
        <mxCell id="bgrn3Tl8ubPK2GubADN5-24" value="7" style="rounded=1;whiteSpace=wrap;html=1;strokeWidth=2;fillWeight=4;hachureGap=8;hachureAngle=45;fillColor=#d5e8d4;sketch=1;strokeColor=#82b366;fontFamily=Comic Sans MS;fontStyle=1" vertex="1" parent="1">
          <mxGeometry x="809" y="318" width="51" height="24" as="geometry" />
        </mxCell>
        <mxCell id="bgrn3Tl8ubPK2GubADN5-25" value="20" style="rounded=1;whiteSpace=wrap;html=1;strokeWidth=2;fillWeight=4;hachureGap=8;hachureAngle=45;fillColor=#d5e8d4;sketch=1;strokeColor=#82b366;fontFamily=Comic Sans MS;fontStyle=1" vertex="1" parent="1">
          <mxGeometry x="452" y="365" width="51" height="24" as="geometry" />
        </mxCell>
        <mxCell id="bgrn3Tl8ubPK2GubADN5-26" value="30" style="rounded=1;whiteSpace=wrap;html=1;strokeWidth=2;fillWeight=4;hachureGap=8;hachureAngle=45;fillColor=#d5e8d4;sketch=1;strokeColor=#82b366;fontFamily=Comic Sans MS;fontStyle=1" vertex="1" parent="1">
          <mxGeometry x="503" y="365" width="51" height="24" as="geometry" />
        </mxCell>
        <mxCell id="bgrn3Tl8ubPK2GubADN5-27" value="75" style="rounded=1;whiteSpace=wrap;html=1;strokeWidth=2;fillWeight=4;hachureGap=8;hachureAngle=45;fillColor=#d5e8d4;sketch=1;strokeColor=#82b366;fontFamily=Comic Sans MS;fontStyle=1" vertex="1" parent="1">
          <mxGeometry x="554" y="365" width="51" height="24" as="geometry" />
        </mxCell>
        <mxCell id="bgrn3Tl8ubPK2GubADN5-28" value="6" style="rounded=1;whiteSpace=wrap;html=1;strokeWidth=2;fillWeight=4;hachureGap=8;hachureAngle=45;fillColor=#d5e8d4;sketch=1;strokeColor=#82b366;fontFamily=Comic Sans MS;fontStyle=1" vertex="1" parent="1">
          <mxGeometry x="605" y="365" width="51" height="24" as="geometry" />
        </mxCell>
        <mxCell id="bgrn3Tl8ubPK2GubADN5-29" value="86" style="rounded=1;whiteSpace=wrap;html=1;strokeWidth=2;fillWeight=4;hachureGap=8;hachureAngle=45;fillColor=#d5e8d4;sketch=1;strokeColor=#82b366;fontFamily=Comic Sans MS;fontStyle=1" vertex="1" parent="1">
          <mxGeometry x="656" y="365" width="51" height="24" as="geometry" />
        </mxCell>
        <mxCell id="bgrn3Tl8ubPK2GubADN5-30" value="95" style="rounded=1;whiteSpace=wrap;html=1;strokeWidth=2;fillWeight=4;hachureGap=8;hachureAngle=45;fillColor=#d5e8d4;sketch=1;strokeColor=#82b366;fontFamily=Comic Sans MS;fontStyle=1" vertex="1" parent="1">
          <mxGeometry x="707" y="365" width="51" height="24" as="geometry" />
        </mxCell>
        <mxCell id="bgrn3Tl8ubPK2GubADN5-31" value="57" style="rounded=1;whiteSpace=wrap;html=1;strokeWidth=2;fillWeight=4;hachureGap=8;hachureAngle=45;fillColor=#d5e8d4;sketch=1;strokeColor=#82b366;fontFamily=Comic Sans MS;fontStyle=1" vertex="1" parent="1">
          <mxGeometry x="758" y="365" width="51" height="24" as="geometry" />
        </mxCell>
        <mxCell id="bgrn3Tl8ubPK2GubADN5-32" value="34" style="rounded=1;whiteSpace=wrap;html=1;strokeWidth=2;fillWeight=4;hachureGap=8;hachureAngle=45;fillColor=#d5e8d4;sketch=1;strokeColor=#82b366;fontFamily=Comic Sans MS;fontStyle=1" vertex="1" parent="1">
          <mxGeometry x="809" y="365" width="51" height="24" as="geometry" />
        </mxCell>
        <mxCell id="bgrn3Tl8ubPK2GubADN5-33" style="edgeStyle=orthogonalEdgeStyle;rounded=0;orthogonalLoop=1;jettySize=auto;html=1;exitX=0.25;exitY=1;exitDx=0;exitDy=0;entryX=1;entryY=0;entryDx=0;entryDy=0;" edge="1" parent="1" source="bgrn3Tl8ubPK2GubADN5-34" target="bgrn3Tl8ubPK2GubADN5-18">
          <mxGeometry relative="1" as="geometry">
            <Array as="points">
              <mxPoint x="278" y="305" />
              <mxPoint x="554" y="305" />
            </Array>
          </mxGeometry>
        </mxCell>
        <mxCell id="bgrn3Tl8ubPK2GubADN5-34" value="cur" style="rounded=1;whiteSpace=wrap;html=1;fillColor=#f5f5f5;fontColor=#333333;strokeColor=#666666;fontFamily=Comic Sans MS;fontStyle=1" vertex="1" parent="1">
          <mxGeometry x="263" y="142" width="60" height="31" as="geometry" />
        </mxCell>
        <mxCell id="bgrn3Tl8ubPK2GubADN5-35" style="edgeStyle=orthogonalEdgeStyle;rounded=0;orthogonalLoop=1;jettySize=auto;html=1;exitX=0.25;exitY=1;exitDx=0;exitDy=0;entryX=0;entryY=0;entryDx=0;entryDy=0;" edge="1" parent="1" source="bgrn3Tl8ubPK2GubADN5-36" target="bgrn3Tl8ubPK2GubADN5-17">
          <mxGeometry relative="1" as="geometry">
            <Array as="points">
              <mxPoint x="338" y="318" />
            </Array>
          </mxGeometry>
        </mxCell>
        <mxCell id="bgrn3Tl8ubPK2GubADN5-36" value="first" style="rounded=1;whiteSpace=wrap;html=1;fillColor=#f5f5f5;fontColor=#333333;strokeColor=#666666;fontFamily=Comic Sans MS;fontStyle=1" vertex="1" parent="1">
          <mxGeometry x="323" y="142" width="60" height="31" as="geometry" />
        </mxCell>
        <mxCell id="bgrn3Tl8ubPK2GubADN5-37" style="edgeStyle=orthogonalEdgeStyle;rounded=0;orthogonalLoop=1;jettySize=auto;html=1;exitX=0.25;exitY=1;exitDx=0;exitDy=0;entryX=1;entryY=0;entryDx=0;entryDy=0;" edge="1" parent="1" source="bgrn3Tl8ubPK2GubADN5-38" target="bgrn3Tl8ubPK2GubADN5-24">
          <mxGeometry relative="1" as="geometry">
            <mxPoint x="443" y="410" as="targetPoint" />
            <Array as="points">
              <mxPoint x="398" y="230" />
              <mxPoint x="905" y="230" />
              <mxPoint x="905" y="318" />
            </Array>
          </mxGeometry>
        </mxCell>
        <mxCell id="bgrn3Tl8ubPK2GubADN5-38" value="last" style="rounded=1;whiteSpace=wrap;html=1;fillColor=#f5f5f5;fontColor=#333333;strokeColor=#666666;fontFamily=Comic Sans MS;fontStyle=1" vertex="1" parent="1">
          <mxGeometry x="383" y="142" width="60" height="31" as="geometry" />
        </mxCell>
        <mxCell id="bgrn3Tl8ubPK2GubADN5-39" style="edgeStyle=orthogonalEdgeStyle;rounded=0;orthogonalLoop=1;jettySize=auto;html=1;exitX=0.25;exitY=1;exitDx=0;exitDy=0;entryX=0.5;entryY=0;entryDx=0;entryDy=0;" edge="1" parent="1" source="bgrn3Tl8ubPK2GubADN5-40" target="bgrn3Tl8ubPK2GubADN5-46">
          <mxGeometry relative="1" as="geometry">
            <Array as="points">
              <mxPoint x="458" y="209" />
              <mxPoint x="314" y="209" />
            </Array>
          </mxGeometry>
        </mxCell>
        <mxCell id="bgrn3Tl8ubPK2GubADN5-40" value="node" style="rounded=1;whiteSpace=wrap;html=1;fillColor=#f5f5f5;fontColor=#333333;strokeColor=#666666;fontFamily=Comic Sans MS;fontStyle=1" vertex="1" parent="1">
          <mxGeometry x="443" y="142" width="60" height="31" as="geometry" />
        </mxCell>
        <mxCell id="bgrn3Tl8ubPK2GubADN5-41" value="" style="rounded=1;whiteSpace=wrap;html=1;strokeWidth=2;fillWeight=4;hachureGap=8;hachureAngle=45;fillColor=#dae8fc;sketch=1;strokeColor=#6c8ebf;fontStyle=1" vertex="1" parent="1">
          <mxGeometry x="135" y="502" width="51" height="24" as="geometry" />
        </mxCell>
        <mxCell id="bgrn3Tl8ubPK2GubADN5-42" value="" style="rounded=1;whiteSpace=wrap;html=1;strokeWidth=2;fillWeight=4;hachureGap=8;hachureAngle=45;fillColor=#dae8fc;sketch=1;strokeColor=#6c8ebf;fontStyle=1" vertex="1" parent="1">
          <mxGeometry x="186" y="502" width="51" height="24" as="geometry" />
        </mxCell>
        <mxCell id="bgrn3Tl8ubPK2GubADN5-43" style="edgeStyle=orthogonalEdgeStyle;rounded=0;orthogonalLoop=1;jettySize=auto;html=1;exitX=0.25;exitY=0;exitDx=0;exitDy=0;entryX=0;entryY=0.25;entryDx=0;entryDy=0;fillColor=#f8cecc;strokeColor=#b85450;" edge="1" parent="1" source="bgrn3Tl8ubPK2GubADN5-44" target="bgrn3Tl8ubPK2GubADN5-1">
          <mxGeometry relative="1" as="geometry" />
        </mxCell>
        <mxCell id="bgrn3Tl8ubPK2GubADN5-44" value="" style="rounded=1;whiteSpace=wrap;html=1;strokeWidth=2;fillWeight=4;hachureGap=8;hachureAngle=45;fillColor=#f8cecc;sketch=1;strokeColor=#b85450;fontStyle=1" vertex="1" parent="1">
          <mxGeometry x="237" y="502" width="51" height="24" as="geometry" />
        </mxCell>
        <mxCell id="bgrn3Tl8ubPK2GubADN5-45" style="edgeStyle=orthogonalEdgeStyle;rounded=0;orthogonalLoop=1;jettySize=auto;html=1;exitX=0.25;exitY=0;exitDx=0;exitDy=0;entryX=0;entryY=0.5;entryDx=0;entryDy=0;fillColor=#f8cecc;strokeColor=#b85450;" edge="1" parent="1" source="bgrn3Tl8ubPK2GubADN5-46" target="bgrn3Tl8ubPK2GubADN5-17">
          <mxGeometry relative="1" as="geometry" />
        </mxCell>
        <mxCell id="bgrn3Tl8ubPK2GubADN5-46" value="" style="rounded=1;whiteSpace=wrap;html=1;strokeWidth=2;fillWeight=4;hachureGap=8;hachureAngle=45;fillColor=#f8cecc;sketch=1;strokeColor=#b85450;fontStyle=1" vertex="1" parent="1">
          <mxGeometry x="288" y="502" width="51" height="24" as="geometry" />
        </mxCell>
        <mxCell id="bgrn3Tl8ubPK2GubADN5-47" style="edgeStyle=orthogonalEdgeStyle;rounded=0;orthogonalLoop=1;jettySize=auto;html=1;exitX=0.25;exitY=0;exitDx=0;exitDy=0;entryX=0;entryY=0.25;entryDx=0;entryDy=0;fillColor=#f8cecc;strokeColor=#b85450;" edge="1" parent="1" source="bgrn3Tl8ubPK2GubADN5-48" target="bgrn3Tl8ubPK2GubADN5-25">
          <mxGeometry relative="1" as="geometry" />
        </mxCell>
        <mxCell id="bgrn3Tl8ubPK2GubADN5-48" value="" style="rounded=1;whiteSpace=wrap;html=1;strokeWidth=2;fillWeight=4;hachureGap=8;hachureAngle=45;fillColor=#f8cecc;sketch=1;strokeColor=#b85450;fontStyle=1" vertex="1" parent="1">
          <mxGeometry x="339" y="502" width="51" height="24" as="geometry" />
        </mxCell>
        <mxCell id="bgrn3Tl8ubPK2GubADN5-49" style="edgeStyle=orthogonalEdgeStyle;rounded=0;orthogonalLoop=1;jettySize=auto;html=1;exitX=0.25;exitY=0;exitDx=0;exitDy=0;entryX=0;entryY=0.5;entryDx=0;entryDy=0;fillColor=#f8cecc;strokeColor=#b85450;" edge="1" parent="1" source="bgrn3Tl8ubPK2GubADN5-50" target="bgrn3Tl8ubPK2GubADN5-7">
          <mxGeometry relative="1" as="geometry" />
        </mxCell>
        <mxCell id="bgrn3Tl8ubPK2GubADN5-50" value="" style="rounded=1;whiteSpace=wrap;html=1;strokeWidth=2;fillWeight=4;hachureGap=8;hachureAngle=45;fillColor=#f8cecc;sketch=1;strokeColor=#b85450;fontStyle=1" vertex="1" parent="1">
          <mxGeometry x="390" y="502" width="51" height="24" as="geometry" />
        </mxCell>
        <mxCell id="bgrn3Tl8ubPK2GubADN5-51" value="" style="rounded=1;whiteSpace=wrap;html=1;strokeWidth=2;fillWeight=4;hachureGap=8;hachureAngle=45;fillColor=#dae8fc;sketch=1;strokeColor=#6c8ebf;fontStyle=1" vertex="1" parent="1">
          <mxGeometry x="441" y="502" width="51" height="24" as="geometry" />
        </mxCell>
        <mxCell id="bgrn3Tl8ubPK2GubADN5-52" value="" style="rounded=1;whiteSpace=wrap;html=1;strokeWidth=2;fillWeight=4;hachureGap=8;hachureAngle=45;fillColor=#dae8fc;sketch=1;strokeColor=#6c8ebf;fontStyle=1" vertex="1" parent="1">
          <mxGeometry x="492" y="502" width="51" height="24" as="geometry" />
        </mxCell>
      </root>
    </mxGraphModel>
  </diagram>
</mxfile>
